<svg width="126" height="22" fill="none" xmlns="http://www.w3.org/2000/svg"><path d="M9.644 21.228c-1.488 0-2.816-.172-3.984-.516-1.168-.352-2.16-.892-2.976-1.62-.808-.728-1.424-1.664-1.848-2.808C.412 15.132.2 13.756.2 12.156c0-2.032.376-3.724 1.128-5.076.752-1.352 1.844-2.368 3.276-3.048 1.432-.68 3.172-1.02 5.22-1.02.736 0 1.44.04 2.112.12.672.08 1.336.2 1.992.36v2.76c-.616-.16-1.244-.28-1.884-.36-.64-.08-1.304-.12-1.992-.12-1.408 0-2.584.22-3.528.66a4.349 4.349 0 0 0-2.112 2.052c-.472.928-.708 2.136-.708 3.624 0 1.544.236 2.78.708 3.708.48.928 1.176 1.604 2.088 2.028.92.416 2.048.624 3.384.624.696 0 1.372-.048 2.028-.144a16.46 16.46 0 0 0 2.016-.456v2.748c-.632.192-1.312.34-2.04.444a14.74 14.74 0 0 1-2.244.168Z" fill="#416FD0"/><path d="M23.178 21.18c-1.536 0-2.872-.272-4.008-.816a5.937 5.937 0 0 1-2.628-2.448c-.624-1.088-.936-2.436-.936-4.044 0-1.616.312-2.968.936-4.056a5.924 5.924 0 0 1 2.64-2.448c1.136-.552 2.468-.828 3.996-.828 1.544 0 2.884.276 4.02.828a5.906 5.906 0 0 1 2.64 2.46c.624 1.088.936 2.436.936 4.044 0 1.6-.316 2.944-.948 4.032a5.995 5.995 0 0 1-2.64 2.46c-1.136.544-2.472.816-4.008.816Zm0-2.52c.88 0 1.632-.164 2.256-.492.632-.336 1.112-.852 1.44-1.548.336-.696.504-1.596.504-2.7 0-1.136-.172-2.06-.516-2.772-.336-.72-.82-1.248-1.452-1.584-.624-.336-1.368-.504-2.232-.504-.856 0-1.596.164-2.22.492-.624.328-1.108.84-1.452 1.536-.336.696-.504 1.6-.504 2.712 0 1.152.164 2.084.492 2.796.336.712.816 1.236 1.44 1.572.632.328 1.38.492 2.244.492Z" fill="#E0AF69"/><path d="M33.697 21V6.72h3.3l7.884 10.464h-.516V6.72h3.084V21h-3.288l-7.896-10.464h.516V21h-3.084Z" fill="#6EC584"/><path d="M58.751 21.18c-1.776 0-3.288-.256-4.536-.768-1.24-.512-2.188-1.304-2.844-2.376-.656-1.08-.984-2.464-.984-4.152 0-1.6.328-2.944.984-4.032.664-1.096 1.628-1.92 2.892-2.472 1.272-.56 2.82-.84 4.644-.84.608 0 1.204.028 1.788.084A13.05 13.05 0 0 1 62.4 6.9v2.592a14.308 14.308 0 0 0-1.572-.252 14.066 14.066 0 0 0-1.668-.096c-1.192 0-2.18.168-2.964.504-.784.328-1.368.84-1.752 1.536-.376.696-.564 1.588-.564 2.676 0 1.128.192 2.04.576 2.736.384.688.956 1.192 1.716 1.512.76.312 1.708.468 2.844.468.584 0 1.152-.04 1.704-.12.56-.08 1.12-.192 1.68-.336v2.592a11.91 11.91 0 0 1-1.752.348c-.624.08-1.256.12-1.896.12Zm6.212-.18V6.72h11.232v2.388h-7.98v9.504h8.088V21h-11.34Zm1.8-6.084v-2.388h8.388v2.388h-8.388ZM79.236 21V6.984c.752-.136 1.52-.24 2.304-.312.784-.08 1.616-.12 2.496-.12 2.328 0 4.08.412 5.256 1.236 1.184.816 1.776 2.116 1.776 3.9 0 1.696-.572 2.98-1.716 3.852-1.136.864-2.848 1.296-5.136 1.296-.288 0-.572-.004-.852-.012s-.544-.02-.792-.036V21h-3.336Zm5.004-6.42c1.256 0 2.168-.228 2.736-.684.576-.456.864-1.188.864-2.196 0-1.008-.288-1.74-.864-2.196-.568-.464-1.448-.696-2.64-.696a11.44 11.44 0 0 0-1.764.132v5.532c.28.032.548.06.804.084.264.016.552.024.864.024ZM96.683 21V9.264h-5.1V6.72h13.536v2.544h-5.112V21h-3.324Zm24.296 0-5.81-7.966-2.268-2.702L105.467.28h4.396l5.376 7.294 2.268 2.702L125.375 21h-4.396Zm-15.919 0 7.841-10.668 2.338-2.758L120.601.28h4.256l-7.35 9.996-2.338 2.758-5.81 7.966h-4.299Z" fill="#000"/></svg>