<svg width="123" height="18" viewBox="0 0 123 18" fill="none" xmlns="http://www.w3.org/2000/svg">
    <path d="M12.0086 17H1.28789V14.873L6.34746 9.48047C7.04212 8.72135 7.55417 8.05892 7.88359 7.49316C8.22018 6.92741 8.38848 6.3903 8.38848 5.88184C8.38848 5.18717 8.21302 4.6429 7.86211 4.24902C7.5112 3.84798 7.0099 3.64746 6.3582 3.64746C5.65638 3.64746 5.10137 3.89095 4.69316 4.37793C4.29212 4.85775 4.0916 5.49154 4.0916 6.2793H0.976368C0.976368 5.32682 1.20195 4.45671 1.65313 3.66895C2.11146 2.88118 2.75599 2.2653 3.58672 1.82129C4.41745 1.37012 5.35918 1.14453 6.41191 1.14453C8.02324 1.14453 9.27292 1.53125 10.1609 2.30469C11.0561 3.07812 11.5037 4.17025 11.5037 5.58105C11.5037 6.35449 11.3032 7.14225 10.9021 7.94434C10.5011 8.74642 9.81361 9.68099 8.83965 10.748L5.28399 14.4971H12.0086V17Z" fill="#3E6CD3"/>
    <path d="M22.2438 11.2744H19.6764V17H16.4537V1.35938H22.2652C24.1129 1.35938 25.538 1.77116 26.5406 2.59473C27.5432 3.41829 28.0445 4.58203 28.0445 6.08594C28.0445 7.15299 27.8118 8.0446 27.3463 8.76074C26.888 9.46973 26.1897 10.0355 25.2516 10.458L28.6354 16.8496V17H25.1764L22.2438 11.2744ZM19.6764 8.66406H22.276C23.0852 8.66406 23.7119 8.45996 24.1559 8.05176C24.5999 7.63639 24.8219 7.06706 24.8219 6.34375C24.8219 5.60612 24.6106 5.02604 24.1881 4.60352C23.7727 4.18099 23.1318 3.96973 22.2652 3.96973H19.6764V8.66406Z" fill="#E1B063"/>
    <path d="M32.7045 17V1.35938H37.517C38.892 1.35938 40.1202 1.6709 41.2016 2.29395C42.2901 2.90983 43.1387 3.79069 43.7475 4.93652C44.3562 6.0752 44.6605 7.37142 44.6605 8.8252V9.54492C44.6605 10.9987 44.3598 12.2913 43.7582 13.4229C43.1638 14.5544 42.3223 15.4316 41.2338 16.0547C40.1452 16.6777 38.9171 16.9928 37.5492 17H32.7045ZM35.9271 3.96973V14.4111H37.4848C38.7452 14.4111 39.7084 13.9993 40.3744 13.1758C41.0404 12.3522 41.3806 11.1742 41.3949 9.6416V8.81445C41.3949 7.22461 41.0655 6.02148 40.4066 5.20508C39.7478 4.38151 38.7846 3.96973 37.517 3.96973H35.9271Z" fill="#6AC681"/>
    <path d="M57.3234 12.8965C57.3234 12.2878 57.1086 11.8223 56.6789 11.5C56.2492 11.1706 55.4758 10.8268 54.3586 10.4688C53.2414 10.1035 52.357 9.74544 51.7053 9.39453C49.9292 8.4349 49.0412 7.14225 49.0412 5.5166C49.0412 4.67155 49.2775 3.9196 49.7502 3.26074C50.23 2.59473 50.9139 2.07552 51.802 1.70312C52.6971 1.33073 53.6997 1.14453 54.8098 1.14453C55.927 1.14453 56.9224 1.34863 57.7961 1.75684C58.6698 2.15788 59.3465 2.72721 59.8264 3.46484C60.3133 4.20247 60.5568 5.04036 60.5568 5.97852H57.3342C57.3342 5.26237 57.1086 4.70736 56.6574 4.31348C56.2062 3.91243 55.5725 3.71191 54.7561 3.71191C53.9683 3.71191 53.356 3.88021 52.9191 4.2168C52.4823 4.54622 52.2639 4.98307 52.2639 5.52734C52.2639 6.03581 52.5181 6.46191 53.0266 6.80566C53.5422 7.14941 54.2977 7.47168 55.2932 7.77246C57.1265 8.32389 58.4621 9.00781 59.3 9.82422C60.1379 10.6406 60.5568 11.6576 60.5568 12.875C60.5568 14.2285 60.0448 15.292 59.0207 16.0654C57.9966 16.8317 56.618 17.2148 54.885 17.2148C53.6818 17.2148 52.5861 16.9964 51.5979 16.5596C50.6096 16.1156 49.854 15.5104 49.3312 14.7441C48.8156 13.9779 48.5578 13.0898 48.5578 12.0801H51.7912C51.7912 13.806 52.8225 14.6689 54.885 14.6689C55.6512 14.6689 56.2492 14.515 56.6789 14.207C57.1086 13.8919 57.3234 13.4551 57.3234 12.8965ZM68.4609 2.51953V5.37695H70.4482V7.6543H68.4609V13.4551C68.4609 13.8848 68.5433 14.1927 68.708 14.3789C68.8727 14.5651 69.1878 14.6582 69.6533 14.6582C69.9971 14.6582 70.3014 14.6331 70.5664 14.583V16.9355C69.9577 17.1217 69.3311 17.2148 68.6865 17.2148C66.5094 17.2148 65.3994 16.1156 65.3564 13.917V7.6543H63.6592V5.37695H65.3564V2.51953H68.4609ZM81.3387 15.8184C80.5724 16.7493 79.5125 17.2148 78.159 17.2148C76.9129 17.2148 75.9604 16.8568 75.3016 16.1406C74.6499 15.4245 74.3169 14.3753 74.3025 12.9932V5.37695H77.407V12.8857C77.407 14.096 77.9585 14.7012 79.0613 14.7012C80.1141 14.7012 80.8374 14.3359 81.2312 13.6055V5.37695H84.3465V17H81.4246L81.3387 15.8184ZM88.4049 11.1025C88.4049 9.29069 88.8095 7.84766 89.6187 6.77344C90.4352 5.69922 91.5488 5.16211 92.9596 5.16211C94.0911 5.16211 95.0256 5.58464 95.7633 6.42969V0.5H98.8785V17H96.0748L95.9244 15.7646C95.151 16.7314 94.1555 17.2148 92.9381 17.2148C91.5702 17.2148 90.471 16.6777 89.6402 15.6035C88.8167 14.5221 88.4049 13.0218 88.4049 11.1025ZM91.5094 11.3281C91.5094 12.4167 91.6991 13.251 92.0787 13.8311C92.4583 14.4111 93.0097 14.7012 93.733 14.7012C94.6926 14.7012 95.3694 14.2965 95.7633 13.4873V8.90039C95.3766 8.09115 94.707 7.68652 93.7545 7.68652C92.2577 7.68652 91.5094 8.90039 91.5094 11.3281ZM106.761 17H103.646V5.37695H106.761V17ZM103.463 2.36914C103.463 1.90365 103.617 1.52051 103.925 1.21973C104.24 0.918945 104.666 0.768555 105.204 0.768555C105.733 0.768555 106.156 0.918945 106.471 1.21973C106.786 1.52051 106.944 1.90365 106.944 2.36914C106.944 2.8418 106.783 3.22852 106.46 3.5293C106.145 3.83008 105.726 3.98047 105.204 3.98047C104.681 3.98047 104.258 3.83008 103.936 3.5293C103.621 3.22852 103.463 2.8418 103.463 2.36914ZM111.045 11.0811C111.045 9.92806 111.267 8.90039 111.711 7.99805C112.155 7.0957 112.793 6.39746 113.623 5.90332C114.461 5.40918 115.432 5.16211 116.534 5.16211C118.103 5.16211 119.381 5.64193 120.369 6.60156C121.365 7.5612 121.92 8.86458 122.034 10.5117L122.056 11.3066C122.056 13.0898 121.558 14.5221 120.563 15.6035C119.567 16.6777 118.232 17.2148 116.556 17.2148C114.88 17.2148 113.541 16.6777 112.538 15.6035C111.543 14.5293 111.045 13.0684 111.045 11.2207V11.0811ZM114.15 11.3066C114.15 12.4095 114.357 13.2546 114.773 13.8418C115.188 14.4219 115.782 14.7119 116.556 14.7119C117.308 14.7119 117.895 14.4255 118.318 13.8525C118.74 13.2725 118.951 12.3486 118.951 11.0811C118.951 9.99967 118.74 9.16178 118.318 8.56738C117.895 7.97298 117.301 7.67578 116.534 7.67578C115.775 7.67578 115.188 7.97298 114.773 8.56738C114.357 9.15462 114.15 10.0677 114.15 11.3066Z" fill="black"/>
</svg>
