<svg width="124" height="22" viewBox="0 0 124 22" fill="none" xmlns="http://www.w3.org/2000/svg">
<path d="M8.38402 21.18C6.60802 21.18 5.09602 20.924 3.84802 20.412C2.60802 19.9 1.66002 19.108 1.00402 18.036C0.348019 16.956 0.0200195 15.572 0.0200195 13.884C0.0200195 12.284 0.348019 10.94 1.00402 9.85201C1.66802 8.75601 2.63202 7.93201 3.89602 7.38001C5.16802 6.82001 6.71602 6.54001 8.54002 6.54001C9.14802 6.54001 9.74402 6.56801 10.328 6.62401C10.912 6.68001 11.48 6.77201 12.032 6.90001V9.49201C11.52 9.38001 10.996 9.29601 10.46 9.24001C9.92402 9.17601 9.36802 9.14401 8.79202 9.14401C7.60002 9.14401 6.61202 9.31201 5.82802 9.64801C5.04402 9.97601 4.46002 10.488 4.07602 11.184C3.70002 11.88 3.51202 12.772 3.51202 13.86C3.51202 14.988 3.70402 15.9 4.08802 16.596C4.47202 17.284 5.04402 17.788 5.80402 18.108C6.56402 18.42 7.51202 18.576 8.64802 18.576C9.23202 18.576 9.80002 18.536 10.352 18.456C10.912 18.376 11.472 18.264 12.032 18.12V20.712C11.496 20.864 10.912 20.98 10.28 21.06C9.65602 21.14 9.02402 21.18 8.38402 21.18Z" fill="#416FD0"/>
<path d="M21.2795 21.18C19.7435 21.18 18.4075 20.908 17.2715 20.364C16.1435 19.82 15.2675 19.004 14.6435 17.916C14.0195 16.828 13.7075 15.48 13.7075 13.872C13.7075 12.256 14.0195 10.904 14.6435 9.81601C15.2675 8.72801 16.1475 7.91201 17.2835 7.36801C18.4195 6.81601 19.7515 6.54001 21.2795 6.54001C22.8235 6.54001 24.1635 6.81601 25.2995 7.36801C26.4355 7.91201 27.3155 8.73201 27.9395 9.82801C28.5635 10.916 28.8755 12.264 28.8755 13.872C28.8755 15.472 28.5595 16.816 27.9275 17.904C27.3035 18.992 26.4235 19.812 25.2875 20.364C24.1515 20.908 22.8155 21.18 21.2795 21.18ZM21.2795 18.66C22.1595 18.66 22.9115 18.496 23.5355 18.168C24.1675 17.832 24.6475 17.316 24.9755 16.62C25.3115 15.924 25.4795 15.024 25.4795 13.92C25.4795 12.784 25.3075 11.86 24.9635 11.148C24.6275 10.428 24.1435 9.90001 23.5115 9.56401C22.8875 9.22801 22.1435 9.06001 21.2795 9.06001C20.4235 9.06001 19.6835 9.22401 19.0595 9.55201C18.4355 9.88001 17.9515 10.392 17.6075 11.088C17.2715 11.784 17.1035 12.688 17.1035 13.8C17.1035 14.952 17.2675 15.884 17.5955 16.596C17.9315 17.308 18.4115 17.832 19.0355 18.168C19.6675 18.496 20.4155 18.66 21.2795 18.66Z" fill="#E0AF69"/>
<path d="M31.7986 21V6.72H35.0986L42.9826 17.184H42.4666V6.72H45.5506V21H42.2626L34.3666 10.536H34.8826V21H31.7986Z" fill="#6EC584"/>
<path d="M56.8528 21.18C55.0768 21.18 53.5648 20.924 52.3168 20.412C51.0768 19.9 50.1288 19.108 49.4728 18.036C48.8168 16.956 48.4888 15.572 48.4888 13.884C48.4888 12.284 48.8168 10.94 49.4728 9.852C50.1368 8.756 51.1008 7.932 52.3648 7.38C53.6368 6.82 55.1848 6.54 57.0088 6.54C57.6168 6.54 58.2128 6.568 58.7968 6.624C59.3808 6.68 59.9488 6.772 60.5008 6.9V9.492C59.9888 9.38 59.4648 9.296 58.9288 9.24C58.3928 9.176 57.8368 9.144 57.2608 9.144C56.0688 9.144 55.0808 9.312 54.2968 9.648C53.5128 9.976 52.9288 10.488 52.5448 11.184C52.1688 11.88 51.9808 12.772 51.9808 13.86C51.9808 14.988 52.1728 15.9 52.5568 16.596C52.9408 17.284 53.5128 17.788 54.2728 18.108C55.0328 18.42 55.9808 18.576 57.1168 18.576C57.7008 18.576 58.2688 18.536 58.8208 18.456C59.3808 18.376 59.9408 18.264 60.5008 18.12V20.712C59.9648 20.864 59.3808 20.98 58.7488 21.06C58.1248 21.14 57.4928 21.18 56.8528 21.18ZM63.0643 21V6.72H74.2963V9.108H66.3163V18.612H74.4043V21H63.0643ZM64.8643 14.916V12.528H73.2523V14.916H64.8643ZM77.3377 21V6.984C78.0897 6.848 78.8577 6.744 79.6417 6.672C80.4257 6.592 81.2577 6.552 82.1377 6.552C84.4657 6.552 86.2177 6.964 87.3937 7.788C88.5777 8.604 89.1697 9.904 89.1697 11.688C89.1697 13.384 88.5977 14.668 87.4537 15.54C86.3177 16.404 84.6057 16.836 82.3177 16.836C82.0297 16.836 81.7457 16.832 81.4657 16.824C81.1857 16.816 80.9217 16.804 80.6737 16.788V21H77.3377ZM82.3417 14.58C83.5977 14.58 84.5097 14.352 85.0777 13.896C85.6537 13.44 85.9417 12.708 85.9417 11.7C85.9417 10.692 85.6537 9.96 85.0777 9.504C84.5097 9.04 83.6297 8.808 82.4377 8.808C82.1177 8.808 81.8097 8.82 81.5137 8.844C81.2177 8.868 80.9377 8.9 80.6737 8.94V14.472C80.9537 14.504 81.2217 14.532 81.4777 14.556C81.7417 14.572 82.0297 14.58 82.3417 14.58ZM94.7848 21V9.264H89.6848V6.72H103.221V9.264H98.1088V21H94.7848ZM119.08 21L113.27 13.034L111.002 10.332L103.568 0.279999H107.964L113.34 7.574L115.608 10.276L123.476 21H119.08ZM103.162 21L111.002 10.332L113.34 7.574L118.702 0.279999H122.958L115.608 10.276L113.27 13.034L107.46 21H103.162Z" fill="black"/>
</svg>
