<svg width="512" height="512" fill="none" xmlns="http://www.w3.org/2000/svg"><rect width="512" height="512" rx="256" fill="#fff"/><path d="M171.155 332.565H67.998v-20.467l48.684-51.888c6.684-7.304 11.611-13.678 14.781-19.122 3.239-5.444 4.858-10.612 4.858-15.505 0-6.684-1.688-11.921-5.065-15.711-3.376-3.859-8.2-5.788-14.471-5.788-6.753 0-12.093 2.343-16.021 7.028-3.86 4.617-5.788 10.716-5.788 18.296H65c0-9.165 2.17-17.537 6.512-25.117 4.41-7.581 10.612-13.507 18.605-17.779 7.994-4.341 17.055-6.512 27.185-6.512 15.505 0 27.529 3.721 36.074 11.163 8.613 7.442 12.92 17.951 12.92 31.526 0 7.442-1.929 15.022-5.788 22.74-3.859 7.718-10.474 16.711-19.846 26.978l-34.213 36.074h64.706v24.084Z" fill="#3E6CD3"/><path d="M257.295 275.405h-24.704v55.093h-31.01V180h55.92c17.779 0 31.491 3.962 41.138 11.887 9.648 7.924 14.471 19.122 14.471 33.593 0 10.267-2.239 18.847-6.718 25.738-4.41 6.822-11.129 12.266-20.156 16.331l32.56 61.501v1.448h-33.283l-28.218-55.093Zm-24.704-25.118h25.013c7.787 0 13.817-1.964 18.089-5.891 4.273-3.997 6.409-9.475 6.409-16.435 0-7.098-2.033-12.68-6.099-16.745-3.997-4.066-10.164-6.099-18.502-6.099h-24.91v45.17Z" fill="#E1B063"/><path d="M345.295 330.498V180h46.307c13.231 0 25.049 2.998 35.454 8.993 10.474 5.926 18.639 14.402 24.497 25.427 5.857 10.957 8.785 23.429 8.785 37.418v6.925c0 13.989-2.893 26.426-8.682 37.315-5.719 10.887-13.816 19.328-24.29 25.324-10.475 5.994-22.292 9.026-35.454 9.096h-46.617Zm31.009-125.381v100.47h14.988c12.128 0 21.396-3.963 27.805-11.887 6.408-7.925 9.682-19.26 9.819-34.007v-7.959c0-15.297-3.169-26.874-9.51-34.73-6.339-7.924-15.607-11.887-27.804-11.887h-15.298Z" fill="#6AC681"/></svg>