<svg width="514" height="512" fill="none" xmlns="http://www.w3.org/2000/svg"><rect x="2" width="512" height="512" rx="256" fill="#fff"/><path d="M155.607 338.9c-13.2 0-24.934-1.467-35.2-4.4-10.2-3-18.834-7.567-25.9-13.7-7.067-6.2-12.434-14.067-16.1-23.6-3.6-9.533-5.4-20.833-5.4-33.9 0-16.533 3.233-30.467 9.7-41.8 6.533-11.333 16.033-19.9 28.5-25.7 12.533-5.8 27.833-8.7 45.9-8.7 6.066 0 11.9.3 17.5.9 5.6.6 11.1 1.533 16.5 2.8v27.6c-4.934-1.2-10-2.1-15.2-2.7-5.2-.6-10.6-.9-16.2-.9-11.6 0-21.167 1.7-28.7 5.1-7.534 3.333-13.167 8.567-16.9 15.7-3.734 7.067-5.6 16.167-5.6 27.3 0 11.467 1.833 20.767 5.5 27.9 3.733 7.067 9.266 12.233 16.6 15.5 7.4 3.267 16.633 4.9 27.7 4.9 5.666 0 11.2-.4 16.6-1.2 5.4-.8 10.8-1.933 16.2-3.4v27.5c-5.2 1.533-10.834 2.7-16.9 3.5a131.33 131.33 0 0 1-18.6 1.3Z" fill="#3E6CD3"/><path d="M235.874 337v-84.15h-37.44V229.9h105.21v22.95h-37.44V337h-30.33Z" fill="#E1B063"/><path d="m415.771 337-38.5-53.5-19.6-23.1-52.3-71.4h37.9l34.6 47.6 19.7 23.3 56 77.1h-37.8Zm-113.9 0 55.8-76.6 20.2-23.8 34.5-47.6h36.8l-51.6 70.9-20.3 23.6-38.4 53.5h-37Z" fill="#6AC681"/></svg>